<?xml version="1.0" encoding="UTF-8" standalone="no"?>
<svg
   xmlns:dc="http://purl.org/dc/elements/1.1/"
   xmlns:cc="http://creativecommons.org/ns#"
   xmlns:rdf="http://www.w3.org/1999/02/22-rdf-syntax-ns#"
   xmlns:svg="http://www.w3.org/2000/svg"
   xmlns="http://www.w3.org/2000/svg"
   xmlns:sodipodi="http://sodipodi.sourceforge.net/DTD/sodipodi-0.dtd"
   xmlns:inkscape="http://www.inkscape.org/namespaces/inkscape"
   width="210mm"
   height="297mm"
   viewBox="0 0 210 297"
   version="1.1"
   id="svg8"
   inkscape:version="1.0.2 (e86c870879, 2021-01-15)"
   sodipodi:docname="cortelogo.svg">
  <defs
     id="defs2">
    <clipPath
       clipPathUnits="userSpaceOnUse"
       id="clipPath857">
      <path
         d="M 0,595.28 H 841.889 V 0 H 0 Z"
         id="path855" />
    </clipPath>
  </defs>
  <sodipodi:namedview
     id="base"
     pagecolor="#ffffff"
     bordercolor="#666666"
     borderopacity="1.0"
     inkscape:pageopacity="0.0"
     inkscape:pageshadow="2"
     inkscape:zoom="3.959798"
     inkscape:cx="285.23783"
     inkscape:cy="560.80774"
     inkscape:document-units="mm"
     inkscape:current-layer="g841"
     inkscape:document-rotation="0"
     showgrid="false"
     inkscape:window-width="2400"
     inkscape:window-height="1271"
     inkscape:window-x="-9"
     inkscape:window-y="-9"
     inkscape:window-maximized="1" />
  <metadata
     id="metadata5">
    <rdf:RDF>
      <cc:Work
         rdf:about="">
        <dc:format>image/svg+xml</dc:format>
        <dc:type
           rdf:resource="http://purl.org/dc/dcmitype/StillImage" />
        <dc:title></dc:title>
      </cc:Work>
    </rdf:RDF>
  </metadata>
  <g
     inkscape:label="Capa 1"
     inkscape:groupmode="layer"
     id="layer1">
    <g
       id="g841"
       inkscape:label="Manual de Normas Corte de Justicia"
       transform="matrix(0.35277777,0,0,-0.35277777,-64.907447,235.67074)">
      <text
         transform="matrix(1,0,0,-1,332.9141,72.7607)"
         style="font-variant:normal;font-weight:normal;font-stretch:normal;font-size:12px;font-family:'Myriad Pro';-inkscape-font-specification:MyriadPro-Regular;writing-mode:lr-tb;fill:#4f4c4d;fill-opacity:1;fill-rule:nonzero;stroke:none"
         id="text845"><tspan
           x="0"
           sodipodi:role="line"
           id="tspan843"
           y="0" /></text>
      <text
         transform="matrix(1,0,0,-1,442.6997,72.7607)"
         style="font-style:italic;font-variant:normal;font-weight:normal;font-stretch:normal;font-size:12px;font-family:'Myriad Pro';-inkscape-font-specification:MyriadPro-It;writing-mode:lr-tb;fill:#4f4c4d;fill-opacity:1;fill-rule:nonzero;stroke:none"
         id="text849"><tspan
           sodipodi:role="line"
           id="tspan847"
           x="0"
           y="0" /></text>
      <g
         id="g851"
         transform="translate(48.750004,-34.285715)"
         inkscape:export-xdpi="96"
         inkscape:export-ydpi="96">
        <g
           id="g853"
           clip-path="url(#clipPath857)">
          <g
             id="g859"
             transform="translate(345.2036,243.336)">
            <path
               d="m 0,0 c -1.012,-0.189 -2.572,-0.38 -3.753,-0.38 -3.331,0 -3.859,1.941 -3.859,6.01 0,4.154 0.57,6.094 3.817,6.094 1.138,0 2.846,-0.211 3.795,-0.379 l 0.063,1.37 c -0.927,0.189 -2.53,0.464 -4.027,0.464 -4.386,0 -5.335,-2.615 -5.335,-7.549 0,-4.808 0.97,-7.464 5.335,-7.464 1.392,0 2.994,0.231 4.027,0.442 z"
               style="fill:#231f20;fill-opacity:1;fill-rule:nonzero;stroke:none"
               id="path861" />
          </g>
          <g
             id="g863"
             transform="translate(352.8579,242.9356)">
            <path
               d="m 0,0 c -3.374,0 -4.091,2.024 -4.091,6.009 0,3.965 0.738,6.137 4.091,6.137 3.332,0 4.091,-2.194 4.091,-6.137 C 4.091,1.897 3.395,0 0,0 m 0,-1.434 c 4.534,0 5.777,2.425 5.777,7.443 0,4.85 -1.264,7.57 -5.777,7.57 -4.512,0 -5.756,-2.762 -5.756,-7.57 0,-4.892 1.223,-7.443 5.756,-7.443"
               style="fill:#231f20;fill-opacity:1;fill-rule:nonzero;stroke:none"
               id="path865" />
          </g>
          <g
             id="g867"
             transform="translate(367.3652,247.2998)">
            <path
               d="M 0,0 2.636,-5.587 H 4.428 L 1.624,0.338 c 1.834,0.59 2.677,2.087 2.677,4.238 0,3.078 -1.602,4.428 -4.66,4.428 H -5.756 V -5.587 h 1.623 V 0 Z M 2.636,4.576 C 2.636,2.741 1.855,1.435 -0.337,1.435 H -4.133 V 7.57 h 3.774 c 2.046,0 2.995,-0.991 2.995,-2.994"
               style="fill:#231f20;fill-opacity:1;fill-rule:nonzero;stroke:none"
               id="path869" />
          </g>
          <g
             id="g871"
             transform="translate(372.8687,254.8487)">
            <path
               d="M 0,0 H 4.491 V -13.136 H 6.094 V 0 h 4.449 V 1.455 H 0 Z"
               style="fill:#231f20;fill-opacity:1;fill-rule:nonzero;stroke:none"
               id="path873" />
          </g>
          <g
             id="g875"
             transform="translate(385.478,241.7129)">
            <path
               d="M 0,0 H 8.877 V 1.434 H 1.624 V 6.705 H 7.612 V 8.117 H 1.624 v 5.04 h 7.253 v 1.434 H 0 Z"
               style="fill:#231f20;fill-opacity:1;fill-rule:nonzero;stroke:none"
               id="path877" />
          </g>
          <g
             id="g879"
             transform="translate(406.9854,241.7129)">
            <path
               d="m 0,0 c 4.302,0 5.398,3.331 5.398,7.506 0,4.133 -1.16,7.085 -5.398,7.085 H -5.208 V 0 Z M 3.732,7.506 C 3.732,4.344 3.037,1.434 0,1.434 H -3.584 V 13.157 H 0 c 3.037,0 3.732,-2.488 3.732,-5.651"
               style="fill:#231f20;fill-opacity:1;fill-rule:nonzero;stroke:none"
               id="path881" />
          </g>
          <g
             id="g883"
             transform="translate(415.3779,241.7129)">
            <path
               d="M 0,0 H 8.877 V 1.434 H 1.624 V 6.705 H 7.612 V 8.117 H 1.624 v 5.04 h 7.253 v 1.434 H 0 Z"
               style="fill:#231f20;fill-opacity:1;fill-rule:nonzero;stroke:none"
               id="path885" />
          </g>
          <g
             id="g887"
             transform="translate(434.2495,256.3037)">
            <path
               d="m 0,0 h -1.603 v -12.356 c 0,-2.172 -0.463,-2.298 -2.382,-2.298 v -1.455 c 2.783,0 4.006,0.358 4.006,3.521 z"
               style="fill:#231f20;fill-opacity:1;fill-rule:nonzero;stroke:none"
               id="path889" />
          </g>
          <g
             id="g891"
             transform="translate(439.2891,246.0987)">
            <path
               d="M 0,0 V 10.205 H -1.624 V 0.042 c 0,-3.353 1.835,-4.639 5.04,-4.639 3.332,0 5.166,1.307 5.166,4.639 V 10.205 H 6.979 V 0 C 6.979,-2.277 5.693,-3.163 3.416,-3.163 1.265,-3.163 0,-2.277 0,0"
               style="fill:#231f20;fill-opacity:1;fill-rule:nonzero;stroke:none"
               id="path893" />
          </g>
          <g
             id="g895"
             transform="translate(459.6792,256.1143)">
            <path
               d="m 0,0 c 0,0 -2.678,0.422 -4.407,0.422 -2.847,0 -4.702,-1.097 -4.702,-3.922 0,-2.784 1.518,-3.501 4.533,-4.154 2.383,-0.464 3.247,-0.928 3.247,-2.573 0,-2.024 -1.054,-2.931 -3.12,-2.931 -1.497,0 -4.365,0.38 -4.365,0.38 l -0.169,-1.35 c 0,0 2.889,-0.464 4.618,-0.464 2.889,0 4.66,1.266 4.66,4.491 0,2.552 -1.286,3.269 -4.196,3.922 -2.552,0.57 -3.563,0.886 -3.563,2.784 0,1.645 1.096,2.382 3.162,2.382 1.223,0 4.154,-0.358 4.154,-0.358 z"
               style="fill:#231f20;fill-opacity:1;fill-rule:nonzero;stroke:none"
               id="path897" />
          </g>
          <g
             id="g899"
             transform="translate(461.2603,254.8487)">
            <path
               d="M 0,0 H 4.492 V -13.136 H 6.094 V 0 h 4.449 V 1.455 H 0 Z"
               style="fill:#231f20;fill-opacity:1;fill-rule:nonzero;stroke:none"
               id="path901" />
          </g>
          <path
             d="m 473.87,241.713 h 1.624 v 14.591 h -1.624 z"
             style="fill:#231f20;fill-opacity:1;fill-rule:nonzero;stroke:none"
             id="path903" />
          <g
             id="g905"
             transform="translate(487.8076,243.336)">
            <path
               d="m 0,0 c -1.012,-0.189 -2.572,-0.38 -3.753,-0.38 -3.332,0 -3.859,1.941 -3.859,6.01 0,4.154 0.57,6.094 3.817,6.094 1.138,0 2.846,-0.211 3.795,-0.379 l 0.063,1.37 c -0.928,0.189 -2.53,0.464 -4.027,0.464 -4.386,0 -5.335,-2.615 -5.335,-7.549 0,-4.808 0.97,-7.464 5.335,-7.464 1.392,0 2.994,0.231 4.027,0.442 z"
               style="fill:#231f20;fill-opacity:1;fill-rule:nonzero;stroke:none"
               id="path907" />
          </g>
          <path
             d="m 490.528,241.713 h 1.624 v 14.591 h -1.624 z"
             style="fill:#231f20;fill-opacity:1;fill-rule:nonzero;stroke:none"
             id="path909" />
          <g
             id="g911"
             transform="translate(494.4287,241.7129)">
            <path
               d="M 0,0 H 1.603 L 2.657,3.753 H 8.898 L 9.953,0 h 1.602 L 7.549,14.591 H 4.006 Z M 5.229,13.199 H 6.326 L 8.54,5.208 H 3.015 Z"
               style="fill:#231f20;fill-opacity:1;fill-rule:nonzero;stroke:none"
               id="path913" />
          </g>
          <g
             id="g915"
             transform="translate(386.9434,234.1504)">
            <path
               d="m 0,0 c 0,0 -2.678,0.422 -4.407,0.422 -2.846,0 -4.702,-1.097 -4.702,-3.922 0,-2.783 1.518,-3.5 4.533,-4.153 2.383,-0.464 3.248,-0.928 3.248,-2.574 0,-2.023 -1.055,-2.93 -3.121,-2.93 -1.497,0 -4.365,0.38 -4.365,0.38 l -0.168,-1.35 c 0,0 2.888,-0.464 4.617,-0.464 2.889,0 4.66,1.265 4.66,4.491 0,2.552 -1.286,3.269 -4.196,3.922 -2.551,0.57 -3.563,0.886 -3.563,2.783 0,1.645 1.096,2.383 3.163,2.383 1.222,0 4.154,-0.358 4.154,-0.358 z"
               style="fill:#ca805f;fill-opacity:1;fill-rule:nonzero;stroke:none"
               id="path917" />
          </g>
          <g
             id="g919"
             transform="translate(388.5459,219.7491)">
            <path
               d="M 0,0 H 1.603 L 2.657,3.754 H 8.898 L 9.953,0 h 1.602 L 7.549,14.592 H 4.006 Z M 5.229,13.2 H 6.326 L 8.54,5.208 H 3.016 Z"
               style="fill:#ca805f;fill-opacity:1;fill-rule:nonzero;stroke:none"
               id="path921" />
          </g>
          <g
             id="g923"
             transform="translate(402.3994,219.7491)">
            <path
               d="m 0,0 h 1.624 v 13.158 h 0.4 L 7.696,0 h 2.973 V 14.592 H 9.067 V 1.434 H 8.624 L 3.036,14.592 H 0 Z"
               style="fill:#ca805f;fill-opacity:1;fill-rule:nonzero;stroke:none"
               id="path925" />
          </g>
          <g
             id="g927"
             transform="translate(423.8647,234.3409)">
            <path
               d="m 0,0 h -1.603 v -12.356 c 0,-2.172 -0.463,-2.299 -2.382,-2.299 v -1.454 c 2.783,0 4.006,0.358 4.006,3.521 z"
               style="fill:#ca805f;fill-opacity:1;fill-rule:nonzero;stroke:none"
               id="path929" />
          </g>
          <g
             id="g931"
             transform="translate(428.9043,224.1348)">
            <path
               d="M 0,0 V 10.206 H -1.624 V 0.042 c 0,-3.353 1.835,-4.639 5.04,-4.639 3.332,0 5.166,1.308 5.166,4.639 V 10.206 H 6.979 V 0 C 6.979,-2.277 5.693,-3.162 3.416,-3.162 1.265,-3.162 0,-2.277 0,0"
               style="fill:#ca805f;fill-opacity:1;fill-rule:nonzero;stroke:none"
               id="path933" />
          </g>
          <g
             id="g935"
             transform="translate(439.5317,219.7491)">
            <path
               d="M 0,0 H 1.603 L 2.657,3.754 H 8.898 L 9.952,0 h 1.603 L 7.548,14.592 H 4.006 Z M 5.229,13.2 H 6.326 L 8.54,5.208 H 3.015 Z"
               style="fill:#ca805f;fill-opacity:1;fill-rule:nonzero;stroke:none"
               id="path937" />
          </g>
          <g
             id="g939"
             transform="translate(453.3848,219.7491)">
            <path
               d="m 0,0 h 1.624 v 13.158 h 0.4 L 7.697,0 h 2.972 V 14.592 H 9.067 V 1.434 H 8.625 L 3.037,14.592 H 0 Z"
               style="fill:#ca805f;fill-opacity:1;fill-rule:nonzero;stroke:none"
               id="path941" />
          </g>
          <g
             id="g943"
             transform="translate(420.7749,267.8057)">
            <path
               d="m 0,0 c -3.151,0 -6.719,1.596 -18.464,10.66 -11.126,8.591 -20.706,19.342 -22.78,25.565 -0.203,0.61 -1.216,4.879 -1.216,7.333 v 51.839 c 0,5.284 1.908,7.458 5.424,9.624 4.504,2.771 29.282,4.223 37.036,4.223 7.754,0 32.532,-1.452 37.033,-4.223 3.517,-2.165 5.424,-4.339 5.424,-9.624 V 43.558 c 0,-2.457 -1.012,-6.724 -1.217,-7.336 C 39.168,30.002 29.588,19.251 18.464,10.66 6.719,1.596 3.151,0 0,0"
               style="fill:#ca805f;fill-opacity:1;fill-rule:nonzero;stroke:none"
               id="path945" />
          </g>
          <g
             id="g947"
             transform="translate(455.5669,369.1836)">
            <path
               d="m 0,0 c -2.593,1.595 -23.229,3.589 -34.793,3.589 -11.564,0 -32.2,-1.994 -34.794,-3.589 -2.591,-1.595 -3.389,-2.591 -3.389,-5.98 v -51.84 c 0,-1.794 0.872,-5.607 0.997,-5.981 1.596,-4.787 9.971,-14.755 21.335,-23.53 11.365,-8.773 14.156,-9.771 15.851,-9.771 1.694,0 4.487,0.998 15.851,9.771 11.366,8.775 19.739,18.743 21.334,23.53 0.126,0.374 0.996,4.187 0.996,5.981 V -5.98 C 3.388,-2.591 2.592,-1.595 0,0"
               style="fill:#324f6a;fill-opacity:1;fill-rule:nonzero;stroke:none"
               id="path949" />
          </g>
          <g
             id="g951"
             transform="translate(444.5635,312.2681)">
            <path
               d="M 0,0 3.833,0.066 -13.703,35.504 -23.969,15.4 -33.877,35.6 V 35.594 35.6 l -17.394,-35.465 3.678,-0.039 13.798,28.214 7.993,-16.499 2.012,-4.153 3.664,-7.562 3.644,0.039 -5.506,11.226 8.197,16.841 z"
               style="fill:#ca805f;fill-opacity:1;fill-rule:nonzero;stroke:none"
               id="path953" />
          </g>
          <g
             id="g955"
             transform="translate(426.7666,309.4893)">
            <path
               d="m 0,0 h -11.721 -22.027 c 2.085,-4.442 8.848,-7.698 16.874,-7.698 4.176,0 8.002,0.886 11.013,2.358 3.011,-1.472 6.837,-2.358 11.013,-2.358 8.027,0 14.789,3.256 16.874,7.698 z"
               style="fill:#ca805f;fill-opacity:1;fill-rule:nonzero;stroke:none"
               id="path957" />
          </g>
          <path
             d="m 406.309,354.14 h 29.17 v -1.992 h -29.17 z"
             style="fill:#ca805f;fill-opacity:1;fill-rule:evenodd;stroke:none"
             id="path959" />
          <g
             id="g961"
             transform="translate(420.8286,366.0791)">
            <path
               d="M 0,0 H 0.727 L 0.344,1.704 Z"
               style="fill:#ca805f;fill-opacity:1;fill-rule:evenodd;stroke:none"
               id="path963" />
          </g>
          <g
             id="g965"
             transform="translate(419.4814,365.7578)">
            <path
               d="M 0,0 0.689,0.23 -0.213,1.726 Z"
               style="fill:#ca805f;fill-opacity:1;fill-rule:evenodd;stroke:none"
               id="path967" />
          </g>
          <g
             id="g969"
             transform="translate(422.6514,365.7578)">
            <path
               d="M 0,0 -0.689,0.23 0.213,1.726 Z"
               style="fill:#ca805f;fill-opacity:1;fill-rule:evenodd;stroke:none"
               id="path971" />
          </g>
          <g
             id="g973"
             transform="translate(423.8057,364.917)">
            <path
               d="M 0,0 0.369,-0.626 1.643,0.569 Z"
               style="fill:#ca805f;fill-opacity:1;fill-rule:evenodd;stroke:none"
               id="path975" />
          </g>
          <g
             id="g977"
             transform="translate(423.0454,365.5909)">
            <path
               d="M 0,0 0.548,-0.477 1.378,1.06 Z"
               style="fill:#ca805f;fill-opacity:1;fill-rule:evenodd;stroke:none"
               id="path979" />
          </g>
          <g
             id="g981"
             transform="translate(424.4653,363.2793)">
            <path
               d="M 0,0 -0.152,0.71 1.595,0.692 Z"
               style="fill:#ca805f;fill-opacity:1;fill-rule:evenodd;stroke:none"
               id="path983" />
          </g>
          <g
             id="g985"
             transform="translate(417.8584,361.3042)">
            <path
               d="M 0,0 -0.175,0.705 -1.737,-0.078 Z"
               style="fill:#ca805f;fill-opacity:1;fill-rule:evenodd;stroke:none"
               id="path987" />
          </g>
          <g
             id="g989"
             transform="translate(417.5996,363.044)">
            <path
               d="m 0,0 0.034,-0.726 -1.721,0.302 z"
               style="fill:#ca805f;fill-opacity:1;fill-rule:evenodd;stroke:none"
               id="path991" />
          </g>
          <g
             id="g993"
             transform="translate(418.0161,364.2989)">
            <path
               d="M 0,0 0.396,0.609 -1.243,1.216 Z"
               style="fill:#ca805f;fill-opacity:1;fill-rule:evenodd;stroke:none"
               id="path995" />
          </g>
          <g
             id="g997"
             transform="translate(417.6724,363.3179)">
            <path
               d="M 0,0 0.182,0.703 -1.564,0.76 Z"
               style="fill:#ca805f;fill-opacity:1;fill-rule:evenodd;stroke:none"
               id="path999" />
          </g>
          <g
             id="g1001"
             transform="translate(419.1865,365.6201)">
            <path
               d="M 0,0 -0.568,-0.453 -1.332,1.118 Z"
               style="fill:#ca805f;fill-opacity:1;fill-rule:evenodd;stroke:none"
               id="path1003" />
          </g>
          <g
             id="g1005"
             transform="translate(424.3237,361.3042)">
            <path
               d="M 0,0 0.175,0.705 1.737,-0.078 Z"
               style="fill:#ca805f;fill-opacity:1;fill-rule:evenodd;stroke:none"
               id="path1007" />
          </g>
          <g
             id="g1009"
             transform="translate(424.5166,362.3174)">
            <path
               d="m 0,0 0.008,0.727 1.7,-0.401 z"
               style="fill:#ca805f;fill-opacity:1;fill-rule:evenodd;stroke:none"
               id="path1011" />
          </g>
          <g
             id="g1013"
             transform="translate(421.1084,365.9844)">
            <path
               d="m 0,0 c 1.854,0 3.357,-1.492 3.357,-3.332 0,-1.84 -1.503,-3.332 -3.357,-3.332 -1.854,0 -3.357,1.492 -3.357,3.332 C -3.357,-1.492 -1.854,0 0,0"
               style="fill:#ca805f;fill-opacity:1;fill-rule:nonzero;stroke:none"
               id="path1015" />
          </g>
          <g
             id="g1017"
             transform="translate(421.0542,366.0786)">
            <path
               d="m 0,0 c -1.944,0 -3.521,-1.534 -3.521,-3.426 0,-1.892 1.577,-3.427 3.521,-3.427 1.944,0 3.521,1.535 3.521,3.427 C 3.521,-1.534 1.944,0 0,0"
               style="fill:#ca805f;fill-opacity:1;fill-rule:evenodd;stroke:none"
               id="path1019" />
          </g>
          <g
             id="g1021"
             transform="translate(421.0542,366.0786)">
            <path
               d="m 0,0 c -1.944,0 -3.521,-1.534 -3.521,-3.426 0,-1.892 1.577,-3.427 3.521,-3.427 1.944,0 3.521,1.535 3.521,3.427 C 3.521,-1.534 1.944,0 0,0"
               style="fill:#ca805f;fill-opacity:1;fill-rule:nonzero;stroke:none"
               id="path1023" />
          </g>
          <g
             id="g1025"
             transform="translate(421.3511,359.4751)">
            <path
               d="m 0,0 h -0.727 l 0.385,-1.705 z"
               style="fill:#ca805f;fill-opacity:1;fill-rule:evenodd;stroke:none"
               id="path1027" />
          </g>
          <g
             id="g1029"
             transform="translate(422.6982,359.7969)">
            <path
               d="M 0,0 -0.689,-0.23 0.214,-1.726 Z"
               style="fill:#ca805f;fill-opacity:1;fill-rule:evenodd;stroke:none"
               id="path1031" />
          </g>
          <g
             id="g1033"
             transform="translate(419.5278,359.795)">
            <path
               d="M 0,0 0.689,-0.229 -0.212,-1.726 Z"
               style="fill:#ca805f;fill-opacity:1;fill-rule:evenodd;stroke:none"
               id="path1035" />
          </g>
          <g
             id="g1037"
             transform="translate(418.3735,360.6348)">
            <path
               d="M 0,0 -0.369,0.626 -1.643,-0.57 Z"
               style="fill:#ca805f;fill-opacity:1;fill-rule:evenodd;stroke:none"
               id="path1039" />
          </g>
          <g
             id="g1041"
             transform="translate(419.1343,359.9615)">
            <path
               d="m 0,0 -0.548,0.477 -0.83,-1.538 z"
               style="fill:#ca805f;fill-opacity:1;fill-rule:evenodd;stroke:none"
               id="path1043" />
          </g>
          <g
             id="g1045"
             transform="translate(424.1626,361.2569)">
            <path
               d="M 0,0 -0.395,-0.609 1.244,-1.215 Z"
               style="fill:#ca805f;fill-opacity:1;fill-rule:evenodd;stroke:none"
               id="path1047" />
          </g>
          <g
             id="g1049"
             transform="translate(422.9927,359.9346)">
            <path
               d="M 0,0 0.568,0.454 1.333,-1.117 Z"
               style="fill:#ca805f;fill-opacity:1;fill-rule:evenodd;stroke:none"
               id="path1051" />
          </g>
        </g>
      </g>
    </g>
  </g>
</svg>
